<svg id="yulansvg" xmlns="http://www.w3.org/2000/svg" data-v-056d9bd8="" version="1.0" width="181" height="90" viewBox="0 0 181.000000 90.000000" preserveAspectRatio="xMidYMid meet" color-interpolation-filters="sRGB" class="el-tooltip"><svg width="90" height="90" x="0" y="0"><svg xmlns="http://www.w3.org/2000/svg" viewBox="0 0 512 512"><path d="M191.194 148.304h129.614l-58.319-91.782c-3.014-4.743-9.962-4.743-12.975 0l-58.32 91.782z" fill="#464655"></path><path d="M510.799 447.304l-41.908-65.953H43.11L1.202 447.304c-3.234 5.089.439 11.731 6.488 11.731h496.62c6.049 0 9.723-6.642 6.489-11.731z" fill="#eff2fa"></path><path fill="#d7deed" d="M43.11 381.352h425.781l-49.362-77.684H92.471z"></path><path fill="#c7cfe2" d="M92.471 303.668h327.058l-49.361-77.681H141.832z"></path><path fill="#afb9d2" d="M141.832 225.987h228.336l-49.36-77.683H191.194z"></path></svg></svg><g class="font1 logoname" transform="translate(95, 31.5)" fill="#afb9d2"> <path transform="translate(-3.32421875, 27.133060455322266)" d="M8.89-0.14L8.89-11.27L25.22-11.27L25.22-23.41L25.22-23.41Q25.26-25.65 24.52-26.40L24.52-26.40L24.52-26.40Q23.78-27.14 21.54-27.10L21.54-27.10L3.32-27.10L3.32-0.14L8.89-0.14ZM19.66-13.66L8.89-13.66L8.89-24.71L18.21-24.71L18.21-24.71Q19.80-24.86 19.66-23.27L19.66-23.27L19.66-13.66ZM31.87-0.14L54.63-0.14L54.63-20.96L50.37-26.09L50.37-26.09Q49.54-27.03 48.20-27.10L48.20-27.10L31.87-27.10L31.87-0.14ZM37.14-2.53L37.14-24.71L45.24-24.71L45.24-24.71Q46.76-24.57 47.33-23.56L47.33-23.56L49.36-20.88L49.36-2.53L37.14-2.53ZM74.51-22.26L76.24-12.79L68.22-12.79L70.31-24.71L72.55-24.71L72.55-24.71Q74.11-24.90 74.51-22.26L74.51-22.26ZM78.84-0.14L84.26-0.14L79.56-23.92L79.56-23.92Q79.02-27.46 75.88-27.10L75.88-27.10L65.54-27.10L60.41-0.14L65.76-0.14L67.79-10.41L76.75-10.41L78.84-0.14Z"></path></g><g class="font1 slogan" transform="translate(95, 63.5)" fill="#eff2fa"> <path transform="translate(0, 0)" d="M0 0L0 0L0 0L0 0L0 0Q0 0 0 0L0 0L0 0Q0 0 0 0L0 0ZM0 0L0 0L0 0L0 0Q0 0 0 0L0 0L0 0Q0 0 0 0L0 0L0 0L0 0Q0 0 0 0L0 0L0 0Q0 0 0 0L0 0L0 0L0 0L0 0Q0 0 0 0L0 0L0 0Q0 0 0 0Z"></path></g></svg>