<svg id="yulansvg" xmlns="http://www.w3.org/2000/svg" data-v-056d9bd8="" version="1.0" width="183" height="100" viewBox="0 0 183.000000 100.000000" preserveAspectRatio="xMidYMid meet" color-interpolation-filters="sRGB" class="el-tooltip"><svg width="100" height="100" x="0" y="0"><svg viewBox="0 0 132.051 132.742" xmlns="http://www.w3.org/2000/svg"><path fill="none" pointer-events="none" d="M0 0h132.051v132.742H0z"></path><path d="M6.183 125.433l59.6-119.3 59.6 119.3z" class="st20" fill="#78cfe1"></path><path d="M65.383 125.433h60l-30-60z" class="st21" fill="#03bfd7"></path></svg></svg><g class="font1 logoname" transform="translate(105, 33)" fill="#03bfd7"> <path transform="translate(-2.0712890625, 33.2021484375)" d="M19.26-4.72L19.26-1.03L19.26-1.03Q16.65 0.53 12.98 0.53L12.98 0.53L12.98 0.53Q8.06 0.53 5.07-2.63L5.07-2.63L5.07-2.63Q2.07-5.78 2.07-10.81L2.07-10.81L2.07-10.81Q2.07-16.39 5.30-19.80L5.30-19.80L5.30-19.80Q8.53-23.21 13.95-23.21L13.95-23.21L13.95-23.21Q17.06-23.21 19.28-22.11L19.28-22.11L19.28-18.13L19.28-18.13Q16.88-19.89 13.95-19.89L13.95-19.89L13.95-19.89Q10.50-19.89 8.34-17.50L8.34-17.50L8.34-17.50Q6.17-15.11 6.17-11.14L6.17-11.14L6.17-11.14Q6.17-7.22 8.21-5.00L8.21-5.00L8.21-5.00Q10.25-2.79 13.72-2.79L13.72-2.79L13.72-2.79Q16.65-2.79 19.26-4.72L19.26-4.72ZM23.13-11.09L23.13-11.09L23.13-11.09Q23.13-16.71 26.27-19.96L26.27-19.96L26.27-19.96Q29.41-23.21 34.78-23.21L34.78-23.21L34.78-23.21Q39.89-23.21 42.79-20.09L42.79-20.09L42.79-20.09Q45.69-16.96 45.69-11.44L45.69-11.44L45.69-11.44Q45.69-6.07 42.59-2.77L42.59-2.77L42.59-2.77Q39.50 0.53 34.29 0.53L34.29 0.53L34.29 0.53Q29.20 0.53 26.17-2.67L26.17-2.67L26.17-2.67Q23.13-5.87 23.13-11.09ZM27.23-11.22L27.23-11.22L27.23-11.22Q27.23-7.30 29.21-5.04L29.21-5.04L29.21-5.04Q31.19-2.79 34.54-2.79L34.54-2.79L34.54-2.79Q37.98-2.79 39.79-4.99L39.79-4.99L39.79-4.99Q41.59-7.20 41.59-11.32L41.59-11.32L41.59-11.32Q41.59-15.46 39.79-17.68L39.79-17.68L39.79-17.68Q37.98-19.89 34.54-19.89L34.54-19.89L34.54-19.89Q31.15-19.89 29.19-17.58L29.19-17.58L29.19-17.58Q27.23-15.26 27.23-11.22ZM50.86-30.68L50.86-30.68L50.86-30.68Q50.86-31.75 51.59-32.47L51.59-32.47L51.59-32.47Q52.32-33.20 53.38-33.20L53.38-33.20L53.38-33.20Q54.47-33.20 55.22-32.48L55.22-32.48L55.22-32.48Q55.97-31.77 55.97-30.68L55.97-30.68L55.97-30.68Q55.97-29.61 55.22-28.91L55.22-28.91L55.22-28.91Q54.47-28.20 53.38-28.20L53.38-28.20L53.38-28.20Q52.29-28.20 51.58-28.91L51.58-28.91L51.58-28.91Q50.86-29.61 50.86-30.68ZM55.35 0L51.33 0L51.33-22.68L55.35-22.68L55.35 0ZM74.69-22.76L74.69-18.70L74.69-18.70Q73.68-19.42 71.92-19.42L71.92-19.42L71.92-19.42Q69.58-19.42 68.07-17.24L68.07-17.24L68.07-17.24Q66.55-15.05 66.55-11.48L66.55-11.48L66.55 0L62.53 0L62.53-22.68L66.55-22.68L66.55-18.07L66.63-18.07L66.63-18.07Q68.35-23.07 72.58-23.07L72.58-23.07L72.58-23.07Q73.95-23.07 74.69-22.76L74.69-22.76Z"></path></g><g class="font1 slogan" transform="translate(105, 72)" fill="#333333"> <path transform="translate(0, 0)" d="M0 0L0 0L0 0L0 0L0 0L0 0L0 0L0 0L0 0L0 0ZM0 0L0 0L0 0Q0 0 0 0L0 0L0 0Q0 0 0 0L0 0L0 0Q0 0 0 0L0 0L0 0Q0 0 0 0ZM0 0L0 0L0 0Q0 0 0 0L0 0L0 0Q0 0 0 0L0 0L0 0Q0 0 0 0L0 0L0 0Q0 0 0 0ZM0 0L0 0L0 0L0 0L0 0L0 0Q0 0 0 0L0 0L0 0L0 0L0 0L0 0L0 0L0 0Q0 0 0 0ZM0 0L0 0L0 0L0 0Q0 0 0 0L0 0L0 0L0 0L0 0L0 0Q0 0 0 0L0 0L0 0ZM0 0L0 0L0 0L0 0Q0 0 0 0L0 0L0 0Q0 0 0 0L0 0L0 0Q0 0 0 0L0 0L0 0Q0 0 0 0L0 0L0 0L0 0Q0 0 0 0L0 0L0 0Q0 0 0 0L0 0L0 0Q0 0 0 0L0 0L0 0Q0 0 0 0ZM0 0L0 0L0 0Q0 0 0 0L0 0L0 0Q0 0 0 0L0 0L0 0Q0 0 0 0L0 0L0 0Q0 0 0 0ZM0 0L0 0L0 0Q0 0 0 0L0 0L0 0Q0 0 0 0L0 0L0 0Q0 0 0 0L0 0L0 0Q0 0 0 0ZM0 0L0 0L0 0L0 0L0 0Q0 0 0 0L0 0L0 0L0 0L0 0L0 0Q0 0 0 0L0 0L0 0L0 0L0 0L0 0L0 0Q0 0 0 0L0 0L0 0L0 0ZM0 0L0 0L0 0L0 0Q0 0 0 0L0 0L0 0Q0 0 0 0L0 0L0 0ZM0 0L0 0L0 0L0 0L0 0Q0 0 0 0L0 0L0 0Q0 0 0 0L0 0L0 0L0 0ZM0 0L0 0L0 0L0 0L0 0Q0 0 0 0L0 0L0 0Q0 0 0 0L0 0ZM0 0L0 0L0 0L0 0Q0 0 0 0L0 0L0 0Q0 0 0 0L0 0L0 0L0 0Q0 0 0 0L0 0L0 0Q0 0 0 0L0 0L0 0L0 0L0 0Q0 0 0 0L0 0L0 0Q0 0 0 0ZM0 0L0 0L0 0L0 0L0 0Q0 0 0 0L0 0L0 0L0 0L0 0L0 0Q0 0 0 0L0 0L0 0L0 0ZM0 0L0 0L0 0L0 0Q0 0 0 0L0 0L0 0Q0 0 0 0L0 0L0 0L0 0L0 0L0 0L0 0L0 0L0 0L0 0Q0 0 0 0L0 0L0 0Q0 0 0 0ZM0 0L0 0L0 0L0 0L0 0Q0 0 0 0L0 0L0 0L0 0L0 0L0 0Q0 0 0 0L0 0L0 0L0 0ZM0 0L0 0L0 0L0 0L0 0Q0 0 0 0L0 0L0 0Q0 0 0 0L0 0ZM0 0L0 0L0 0L0 0Q0 0 0 0L0 0L0 0Q0 0 0 0L0 0L0 0L0 0Q0 0 0 0L0 0L0 0Q0 0 0 0L0 0L0 0L0 0L0 0Q0 0 0 0L0 0L0 0Q0 0 0 0ZM0 0L0 0L0 0L0 0L0 0Q0 0 0 0L0 0L0 0L0 0L0 0L0 0Q0 0 0 0L0 0L0 0L0 0L0 0L0 0L0 0Q0 0 0 0L0 0L0 0L0 0ZM0 0L0 0L0 0L0 0Q0 0 0 0L0 0L0 0Q0 0 0 0L0 0L0 0L0 0Q0 0 0 0L0 0L0 0Q0 0 0 0L0 0L0 0Q0 0 0 0L0 0L0 0Q0 0 0 0ZM0 0L0 0L0 0L0 0Q0 0 0 0L0 0L0 0Q0 0 0 0Z"></path></g></svg>